<?xml version="1.0" encoding="utf-8"?>
<!-- Generator: Adobe Illustrator 21.1.0, SVG Export Plug-In . SVG Version: 6.00 Build 0)  -->
<svg version="1.1" id="Layer_1" xmlns="http://www.w3.org/2000/svg" xmlns:xlink="http://www.w3.org/1999/xlink" x="0px" y="0px"
	 viewBox="0 0 512 512" style="enable-background:new 0 0 512 512;" xml:space="preserve">
<style type="text/css">
	.st0{stroke:#000000;stroke-width:12;stroke-miterlimit:10;}
</style>
<g>
	<g>
		<path class="st0" d="M356.6,243.7L303,205.1c-9.7-7-23.1,0.1-23.1,12.3V241H22.7C14.6,241,8,247.7,8,256c0,8.3,6.6,15,14.7,15
			h257.2v23.6c0,12.2,13.5,19.2,23.1,12.3l53.6-38.6C364.9,262.3,364.9,249.7,356.6,243.7z"/>
	</g>
</g>
<g>
	<g>
		<path class="st0" d="M255.5,6.5c-92.2,0-173.2,50-216.5,125c-4.4,7.7-1.8,17.5,5.9,21.9c7.7,4.4,17.5,1.8,21.9-5.9
			c37.7-65.2,108.2-109,188.8-109c120.1,0,217.9,97.7,217.9,217.9s-97.7,217.9-217.9,217.9c-80.6,0-151.1-43.8-188.8-109
			c-4.4-7.7-14.3-10.3-21.9-5.9c-7.7,4.4-10.3,14.3-5.9,21.9c43.4,75,124.4,125,216.5,125c138.2,0,250-111.8,250-250
			C505.5,118.3,393.7,6.5,255.5,6.5z"/>
	</g>
</g>
</svg>
